<mxfile host="app.diagrams.net" modified="2021-04-12T08:10:25.380Z" agent="5.0 (Windows NT 10.0; Win64; x64) AppleWebKit/537.36 (KHTML, like Gecko) Chrome/89.0.4389.114 Safari/537.36" etag="WXFiT88UWTvtMLvolEt8" version="14.5.8" type="github">
  <diagram id="LePodk2oVUfK-mpkBgb9" name="Page-1">
    <mxGraphModel dx="2272" dy="705" grid="1" gridSize="10" guides="1" tooltips="1" connect="1" arrows="1" fold="1" page="1" pageScale="1" pageWidth="850" pageHeight="1100" math="0" shadow="0">
      <root>
        <mxCell id="0" />
        <mxCell id="1" parent="0" />
        <mxCell id="gRjfYQ1KiGUUWmA5fJx--130" style="edgeStyle=orthogonalEdgeStyle;rounded=0;orthogonalLoop=1;jettySize=auto;html=1;" parent="1" source="J9CYLLF4v2YqIOOy4EOl-24" edge="1">
          <mxGeometry relative="1" as="geometry">
            <mxPoint x="-230" y="480" as="targetPoint" />
          </mxGeometry>
        </mxCell>
        <mxCell id="J9CYLLF4v2YqIOOy4EOl-24" value="" style="shape=image;html=1;verticalAlign=top;verticalLabelPosition=bottom;labelBackgroundColor=#ffffff;imageAspect=0;aspect=fixed;image=https://cdn4.iconfinder.com/data/icons/logos-brands-5/24/player-dot-me-128.png" parent="1" vertex="1">
          <mxGeometry x="-401" y="440" width="80" height="80" as="geometry" />
        </mxCell>
        <mxCell id="J9CYLLF4v2YqIOOy4EOl-27" value="" style="shape=image;html=1;verticalAlign=top;verticalLabelPosition=bottom;labelBackgroundColor=#ffffff;imageAspect=0;aspect=fixed;image=https://cdn4.iconfinder.com/data/icons/logos-brands-5/24/gog-dot-com-128.png" parent="1" vertex="1">
          <mxGeometry x="850" y="440" width="80" height="80" as="geometry" />
        </mxCell>
        <mxCell id="gRjfYQ1KiGUUWmA5fJx--1" value="" style="shape=image;html=1;verticalAlign=top;verticalLabelPosition=bottom;labelBackgroundColor=#ffffff;imageAspect=0;aspect=fixed;image=https://cdn0.iconfinder.com/data/icons/job-seeker/256/graduate_job_seeker_employee_unemployee_work-128.png" parent="1" vertex="1">
          <mxGeometry x="-390" y="520" width="40" height="40" as="geometry" />
        </mxCell>
        <mxCell id="gRjfYQ1KiGUUWmA5fJx--3" value="Job Id: 1" style="text;html=1;align=center;verticalAlign=middle;resizable=0;points=[];autosize=1;strokeColor=none;" parent="1" vertex="1">
          <mxGeometry x="-350" y="530" width="60" height="20" as="geometry" />
        </mxCell>
        <mxCell id="gRjfYQ1KiGUUWmA5fJx--11" value="Received" style="rounded=1;whiteSpace=wrap;html=1;" parent="1" vertex="1">
          <mxGeometry x="-160" y="360" width="120" height="40" as="geometry" />
        </mxCell>
        <mxCell id="gRjfYQ1KiGUUWmA5fJx--12" value="interview&lt;br&gt;scheduled" style="rounded=1;whiteSpace=wrap;html=1;" parent="1" vertex="1">
          <mxGeometry x="40" y="360" width="120" height="40" as="geometry" />
        </mxCell>
        <mxCell id="gRjfYQ1KiGUUWmA5fJx--13" value="&lt;span&gt;interview&lt;br&gt;Completed&lt;br&gt;&lt;/span&gt;" style="rounded=1;whiteSpace=wrap;html=1;" parent="1" vertex="1">
          <mxGeometry x="240.4" y="360" width="120" height="40" as="geometry" />
        </mxCell>
        <mxCell id="gRjfYQ1KiGUUWmA5fJx--14" value="&lt;span&gt;bcg initate&lt;/span&gt;" style="rounded=1;whiteSpace=wrap;html=1;" parent="1" vertex="1">
          <mxGeometry x="440.4" y="360" width="120" height="40" as="geometry" />
        </mxCell>
        <mxCell id="gRjfYQ1KiGUUWmA5fJx--15" value="&lt;span&gt;offer extended&lt;/span&gt;" style="rounded=1;whiteSpace=wrap;html=1;" parent="1" vertex="1">
          <mxGeometry x="640" y="360" width="120" height="40" as="geometry" />
        </mxCell>
        <mxCell id="gRjfYQ1KiGUUWmA5fJx--16" value="&amp;nbsp;" style="rounded=1;whiteSpace=wrap;html=1;" parent="1" vertex="1">
          <mxGeometry x="-160" y="720" width="120" height="40" as="geometry" />
        </mxCell>
        <mxCell id="gRjfYQ1KiGUUWmA5fJx--17" value="" style="rounded=1;whiteSpace=wrap;html=1;" parent="1" vertex="1">
          <mxGeometry x="40" y="720" width="120" height="40" as="geometry" />
        </mxCell>
        <mxCell id="gRjfYQ1KiGUUWmA5fJx--18" value="&amp;nbsp;" style="rounded=1;whiteSpace=wrap;html=1;" parent="1" vertex="1">
          <mxGeometry x="240.4" y="720" width="120" height="40" as="geometry" />
        </mxCell>
        <mxCell id="gRjfYQ1KiGUUWmA5fJx--19" value="bcg inprogress" style="rounded=1;whiteSpace=wrap;html=1;" parent="1" vertex="1">
          <mxGeometry x="440.4" y="720" width="120" height="40" as="geometry" />
        </mxCell>
        <mxCell id="gRjfYQ1KiGUUWmA5fJx--20" value="&amp;nbsp;" style="rounded=1;whiteSpace=wrap;html=1;" parent="1" vertex="1">
          <mxGeometry x="640" y="720" width="120" height="40" as="geometry" />
        </mxCell>
        <mxCell id="gRjfYQ1KiGUUWmA5fJx--23" value="" style="dashed=0;outlineConnect=0;html=1;align=center;labelPosition=center;verticalLabelPosition=bottom;verticalAlign=top;shape=mxgraph.weblogos.json_2" parent="1" vertex="1">
          <mxGeometry x="-160" y="440" width="80.4" height="25.200000000000003" as="geometry" />
        </mxCell>
        <mxCell id="gRjfYQ1KiGUUWmA5fJx--24" value="" style="dashed=0;outlineConnect=0;html=1;align=center;labelPosition=center;verticalLabelPosition=bottom;verticalAlign=top;shape=mxgraph.weblogos.json_2" parent="1" vertex="1">
          <mxGeometry x="40" y="440" width="80.4" height="25.200000000000003" as="geometry" />
        </mxCell>
        <mxCell id="gRjfYQ1KiGUUWmA5fJx--25" value="" style="dashed=0;outlineConnect=0;html=1;align=center;labelPosition=center;verticalLabelPosition=bottom;verticalAlign=top;shape=mxgraph.weblogos.json_2" parent="1" vertex="1">
          <mxGeometry x="240.4" y="440" width="80.4" height="25.200000000000003" as="geometry" />
        </mxCell>
        <mxCell id="gRjfYQ1KiGUUWmA5fJx--26" value="" style="dashed=0;outlineConnect=0;html=1;align=center;labelPosition=center;verticalLabelPosition=bottom;verticalAlign=top;shape=mxgraph.weblogos.json_2" parent="1" vertex="1">
          <mxGeometry x="440.4" y="440" width="80.4" height="25.200000000000003" as="geometry" />
        </mxCell>
        <mxCell id="gRjfYQ1KiGUUWmA5fJx--27" value="" style="dashed=0;outlineConnect=0;html=1;align=center;labelPosition=center;verticalLabelPosition=bottom;verticalAlign=top;shape=mxgraph.weblogos.json_2" parent="1" vertex="1">
          <mxGeometry x="640" y="440" width="80.4" height="25.200000000000003" as="geometry" />
        </mxCell>
        <mxCell id="gRjfYQ1KiGUUWmA5fJx--33" value="" style="pointerEvents=1;shadow=0;dashed=0;html=1;strokeColor=none;fillColor=#505050;labelPosition=center;verticalLabelPosition=bottom;outlineConnect=0;verticalAlign=top;align=center;shape=mxgraph.office.clouds.cloud_service_request;" parent="1" vertex="1">
          <mxGeometry x="-160" y="480" width="50" height="40" as="geometry" />
        </mxCell>
        <mxCell id="gRjfYQ1KiGUUWmA5fJx--34" value="" style="shape=image;html=1;verticalAlign=top;verticalLabelPosition=bottom;labelBackgroundColor=#ffffff;imageAspect=0;aspect=fixed;image=https://cdn4.iconfinder.com/data/icons/pinpoint-interface-ii/48/reply-128.png" parent="1" vertex="1">
          <mxGeometry x="-160" y="520" width="40" height="40" as="geometry" />
        </mxCell>
        <mxCell id="gRjfYQ1KiGUUWmA5fJx--35" value="" style="pointerEvents=1;shadow=0;dashed=0;html=1;strokeColor=none;fillColor=#505050;labelPosition=center;verticalLabelPosition=bottom;outlineConnect=0;verticalAlign=top;align=center;shape=mxgraph.office.clouds.cloud_service_request;" parent="1" vertex="1">
          <mxGeometry x="40" y="480" width="50" height="40" as="geometry" />
        </mxCell>
        <mxCell id="gRjfYQ1KiGUUWmA5fJx--36" value="" style="shape=image;html=1;verticalAlign=top;verticalLabelPosition=bottom;labelBackgroundColor=#ffffff;imageAspect=0;aspect=fixed;image=https://cdn4.iconfinder.com/data/icons/pinpoint-interface-ii/48/reply-128.png" parent="1" vertex="1">
          <mxGeometry x="40" y="520" width="40" height="40" as="geometry" />
        </mxCell>
        <mxCell id="gRjfYQ1KiGUUWmA5fJx--37" value="" style="pointerEvents=1;shadow=0;dashed=0;html=1;strokeColor=none;fillColor=#505050;labelPosition=center;verticalLabelPosition=bottom;outlineConnect=0;verticalAlign=top;align=center;shape=mxgraph.office.clouds.cloud_service_request;" parent="1" vertex="1">
          <mxGeometry x="240.39999999999998" y="480" width="50" height="40" as="geometry" />
        </mxCell>
        <mxCell id="gRjfYQ1KiGUUWmA5fJx--38" value="" style="shape=image;html=1;verticalAlign=top;verticalLabelPosition=bottom;labelBackgroundColor=#ffffff;imageAspect=0;aspect=fixed;image=https://cdn4.iconfinder.com/data/icons/pinpoint-interface-ii/48/reply-128.png" parent="1" vertex="1">
          <mxGeometry x="240.39999999999998" y="520" width="40" height="40" as="geometry" />
        </mxCell>
        <mxCell id="gRjfYQ1KiGUUWmA5fJx--39" value="" style="pointerEvents=1;shadow=0;dashed=0;html=1;strokeColor=none;fillColor=#505050;labelPosition=center;verticalLabelPosition=bottom;outlineConnect=0;verticalAlign=top;align=center;shape=mxgraph.office.clouds.cloud_service_request;" parent="1" vertex="1">
          <mxGeometry x="440.4" y="480" width="50" height="40" as="geometry" />
        </mxCell>
        <mxCell id="gRjfYQ1KiGUUWmA5fJx--40" value="" style="shape=image;html=1;verticalAlign=top;verticalLabelPosition=bottom;labelBackgroundColor=#ffffff;imageAspect=0;aspect=fixed;image=https://cdn4.iconfinder.com/data/icons/pinpoint-interface-ii/48/reply-128.png" parent="1" vertex="1">
          <mxGeometry x="440.4" y="520" width="40" height="40" as="geometry" />
        </mxCell>
        <mxCell id="gRjfYQ1KiGUUWmA5fJx--41" value="" style="pointerEvents=1;shadow=0;dashed=0;html=1;strokeColor=none;fillColor=#505050;labelPosition=center;verticalLabelPosition=bottom;outlineConnect=0;verticalAlign=top;align=center;shape=mxgraph.office.clouds.cloud_service_request;" parent="1" vertex="1">
          <mxGeometry x="640" y="480" width="50" height="40" as="geometry" />
        </mxCell>
        <mxCell id="gRjfYQ1KiGUUWmA5fJx--42" value="" style="shape=image;html=1;verticalAlign=top;verticalLabelPosition=bottom;labelBackgroundColor=#ffffff;imageAspect=0;aspect=fixed;image=https://cdn4.iconfinder.com/data/icons/pinpoint-interface-ii/48/reply-128.png" parent="1" vertex="1">
          <mxGeometry x="640" y="520" width="40" height="40" as="geometry" />
        </mxCell>
        <mxCell id="gRjfYQ1KiGUUWmA5fJx--43" value="" style="endArrow=none;html=1;" parent="1" edge="1">
          <mxGeometry width="50" height="50" relative="1" as="geometry">
            <mxPoint x="-319.4" y="560" as="sourcePoint" />
            <mxPoint x="880.6" y="560" as="targetPoint" />
          </mxGeometry>
        </mxCell>
        <mxCell id="gRjfYQ1KiGUUWmA5fJx--102" value="" style="shape=image;html=1;verticalAlign=top;verticalLabelPosition=bottom;labelBackgroundColor=#ffffff;imageAspect=0;aspect=fixed;image=https://cdn4.iconfinder.com/data/icons/logos-brands-5/24/gog-dot-com-128.png" parent="1" vertex="1">
          <mxGeometry x="850" y="640" width="80" height="80" as="geometry" />
        </mxCell>
        <mxCell id="gRjfYQ1KiGUUWmA5fJx--111" value="" style="shape=image;html=1;verticalAlign=top;verticalLabelPosition=bottom;labelBackgroundColor=#ffffff;imageAspect=0;aspect=fixed;image=https://cdn4.iconfinder.com/data/icons/pinpoint-interface-ii/48/reply-128.png;direction=west;" parent="1" vertex="1">
          <mxGeometry x="-160" y="640" width="40" height="40" as="geometry" />
        </mxCell>
        <mxCell id="gRjfYQ1KiGUUWmA5fJx--118" value="" style="pointerEvents=1;shadow=0;dashed=0;html=1;strokeColor=none;fillColor=#505050;labelPosition=center;verticalLabelPosition=bottom;outlineConnect=0;verticalAlign=top;align=center;shape=mxgraph.office.clouds.cloud_service_request;direction=west;" parent="1" vertex="1">
          <mxGeometry x="640" y="600" width="50" height="40" as="geometry" />
        </mxCell>
        <mxCell id="gRjfYQ1KiGUUWmA5fJx--121" value="" style="shape=image;html=1;verticalAlign=top;verticalLabelPosition=bottom;labelBackgroundColor=#ffffff;imageAspect=0;aspect=fixed;image=https://cdn4.iconfinder.com/data/icons/logos-brands-5/24/player-dot-me-128.png" parent="1" vertex="1">
          <mxGeometry x="-401" y="600" width="80" height="80" as="geometry" />
        </mxCell>
        <mxCell id="gRjfYQ1KiGUUWmA5fJx--122" value="" style="pointerEvents=1;shadow=0;dashed=0;html=1;strokeColor=none;fillColor=#505050;labelPosition=center;verticalLabelPosition=bottom;outlineConnect=0;verticalAlign=top;align=center;shape=mxgraph.office.clouds.cloud_service_request;direction=west;" parent="1" vertex="1">
          <mxGeometry x="440.4" y="600" width="50" height="40" as="geometry" />
        </mxCell>
        <mxCell id="gRjfYQ1KiGUUWmA5fJx--123" value="" style="pointerEvents=1;shadow=0;dashed=0;html=1;strokeColor=none;fillColor=#505050;labelPosition=center;verticalLabelPosition=bottom;outlineConnect=0;verticalAlign=top;align=center;shape=mxgraph.office.clouds.cloud_service_request;direction=west;" parent="1" vertex="1">
          <mxGeometry x="240.39999999999998" y="600" width="50" height="40" as="geometry" />
        </mxCell>
        <mxCell id="gRjfYQ1KiGUUWmA5fJx--124" value="" style="pointerEvents=1;shadow=0;dashed=0;html=1;strokeColor=none;fillColor=#505050;labelPosition=center;verticalLabelPosition=bottom;outlineConnect=0;verticalAlign=top;align=center;shape=mxgraph.office.clouds.cloud_service_request;direction=west;" parent="1" vertex="1">
          <mxGeometry x="40" y="600" width="50" height="40" as="geometry" />
        </mxCell>
        <mxCell id="gRjfYQ1KiGUUWmA5fJx--125" value="" style="pointerEvents=1;shadow=0;dashed=0;html=1;strokeColor=none;fillColor=#505050;labelPosition=center;verticalLabelPosition=bottom;outlineConnect=0;verticalAlign=top;align=center;shape=mxgraph.office.clouds.cloud_service_request;direction=west;" parent="1" vertex="1">
          <mxGeometry x="-160" y="600" width="50" height="40" as="geometry" />
        </mxCell>
        <mxCell id="gRjfYQ1KiGUUWmA5fJx--126" value="" style="shape=image;html=1;verticalAlign=top;verticalLabelPosition=bottom;labelBackgroundColor=#ffffff;imageAspect=0;aspect=fixed;image=https://cdn4.iconfinder.com/data/icons/pinpoint-interface-ii/48/reply-128.png;direction=west;" parent="1" vertex="1">
          <mxGeometry x="40" y="640" width="40" height="40" as="geometry" />
        </mxCell>
        <mxCell id="gRjfYQ1KiGUUWmA5fJx--127" value="" style="shape=image;html=1;verticalAlign=top;verticalLabelPosition=bottom;labelBackgroundColor=#ffffff;imageAspect=0;aspect=fixed;image=https://cdn4.iconfinder.com/data/icons/pinpoint-interface-ii/48/reply-128.png;direction=west;" parent="1" vertex="1">
          <mxGeometry x="240.39999999999998" y="640" width="40" height="40" as="geometry" />
        </mxCell>
        <mxCell id="gRjfYQ1KiGUUWmA5fJx--128" value="" style="shape=image;html=1;verticalAlign=top;verticalLabelPosition=bottom;labelBackgroundColor=#ffffff;imageAspect=0;aspect=fixed;image=https://cdn4.iconfinder.com/data/icons/pinpoint-interface-ii/48/reply-128.png;direction=west;" parent="1" vertex="1">
          <mxGeometry x="440.4" y="640" width="40" height="40" as="geometry" />
        </mxCell>
        <mxCell id="gRjfYQ1KiGUUWmA5fJx--129" value="" style="shape=image;html=1;verticalAlign=top;verticalLabelPosition=bottom;labelBackgroundColor=#ffffff;imageAspect=0;aspect=fixed;image=https://cdn4.iconfinder.com/data/icons/pinpoint-interface-ii/48/reply-128.png;direction=west;" parent="1" vertex="1">
          <mxGeometry x="640" y="640" width="40" height="40" as="geometry" />
        </mxCell>
        <mxCell id="gRjfYQ1KiGUUWmA5fJx--131" style="edgeStyle=orthogonalEdgeStyle;rounded=0;orthogonalLoop=1;jettySize=auto;html=1;" parent="1" edge="1">
          <mxGeometry relative="1" as="geometry">
            <mxPoint x="-230" y="499.5" as="targetPoint" />
            <mxPoint x="-321" y="499.5" as="sourcePoint" />
          </mxGeometry>
        </mxCell>
        <mxCell id="gRjfYQ1KiGUUWmA5fJx--133" value="" style="shape=image;html=1;verticalAlign=top;verticalLabelPosition=bottom;labelBackgroundColor=#ffffff;imageAspect=0;aspect=fixed;image=https://cdn2.iconfinder.com/data/icons/social-media-2259/512/calendar-128.png" parent="1" vertex="1">
          <mxGeometry x="-40" y="360" width="40" height="40" as="geometry" />
        </mxCell>
        <mxCell id="gRjfYQ1KiGUUWmA5fJx--134" value="" style="shape=image;html=1;verticalAlign=top;verticalLabelPosition=bottom;labelBackgroundColor=#ffffff;imageAspect=0;aspect=fixed;image=https://cdn2.iconfinder.com/data/icons/social-media-2259/512/calendar-128.png" parent="1" vertex="1">
          <mxGeometry x="160" y="360" width="40" height="40" as="geometry" />
        </mxCell>
        <mxCell id="gRjfYQ1KiGUUWmA5fJx--135" value="" style="shape=image;html=1;verticalAlign=top;verticalLabelPosition=bottom;labelBackgroundColor=#ffffff;imageAspect=0;aspect=fixed;image=https://cdn2.iconfinder.com/data/icons/social-media-2259/512/calendar-128.png" parent="1" vertex="1">
          <mxGeometry x="360.4" y="360" width="40" height="40" as="geometry" />
        </mxCell>
        <mxCell id="gRjfYQ1KiGUUWmA5fJx--136" value="" style="shape=image;html=1;verticalAlign=top;verticalLabelPosition=bottom;labelBackgroundColor=#ffffff;imageAspect=0;aspect=fixed;image=https://cdn2.iconfinder.com/data/icons/social-media-2259/512/calendar-128.png" parent="1" vertex="1">
          <mxGeometry x="560.4" y="360" width="40" height="40" as="geometry" />
        </mxCell>
        <mxCell id="gRjfYQ1KiGUUWmA5fJx--137" value="" style="shape=image;html=1;verticalAlign=top;verticalLabelPosition=bottom;labelBackgroundColor=#ffffff;imageAspect=0;aspect=fixed;image=https://cdn2.iconfinder.com/data/icons/social-media-2259/512/calendar-128.png" parent="1" vertex="1">
          <mxGeometry x="760" y="360" width="40" height="40" as="geometry" />
        </mxCell>
        <mxCell id="gRjfYQ1KiGUUWmA5fJx--138" value="" style="shape=image;html=1;verticalAlign=top;verticalLabelPosition=bottom;labelBackgroundColor=#ffffff;imageAspect=0;aspect=fixed;image=https://cdn2.iconfinder.com/data/icons/social-media-2259/512/calendar-128.png" parent="1" vertex="1">
          <mxGeometry x="-40" y="720" width="40" height="40" as="geometry" />
        </mxCell>
        <mxCell id="gRjfYQ1KiGUUWmA5fJx--139" value="" style="shape=image;html=1;verticalAlign=top;verticalLabelPosition=bottom;labelBackgroundColor=#ffffff;imageAspect=0;aspect=fixed;image=https://cdn2.iconfinder.com/data/icons/social-media-2259/512/calendar-128.png" parent="1" vertex="1">
          <mxGeometry x="160" y="720" width="40" height="40" as="geometry" />
        </mxCell>
        <mxCell id="gRjfYQ1KiGUUWmA5fJx--140" value="" style="shape=image;html=1;verticalAlign=top;verticalLabelPosition=bottom;labelBackgroundColor=#ffffff;imageAspect=0;aspect=fixed;image=https://cdn2.iconfinder.com/data/icons/social-media-2259/512/calendar-128.png" parent="1" vertex="1">
          <mxGeometry x="360.4" y="720" width="40" height="40" as="geometry" />
        </mxCell>
        <mxCell id="gRjfYQ1KiGUUWmA5fJx--141" value="" style="shape=image;html=1;verticalAlign=top;verticalLabelPosition=bottom;labelBackgroundColor=#ffffff;imageAspect=0;aspect=fixed;image=https://cdn2.iconfinder.com/data/icons/social-media-2259/512/calendar-128.png;fontStyle=1" parent="1" vertex="1">
          <mxGeometry x="560.4" y="720" width="40" height="40" as="geometry" />
        </mxCell>
        <mxCell id="gRjfYQ1KiGUUWmA5fJx--142" value="" style="shape=image;html=1;verticalAlign=top;verticalLabelPosition=bottom;labelBackgroundColor=#ffffff;imageAspect=0;aspect=fixed;image=https://cdn2.iconfinder.com/data/icons/social-media-2259/512/calendar-128.png" parent="1" vertex="1">
          <mxGeometry x="760" y="720" width="40" height="40" as="geometry" />
        </mxCell>
        <mxCell id="gRjfYQ1KiGUUWmA5fJx--143" value="&lt;b&gt;&lt;font style=&quot;font-size: 24px&quot;&gt;Candidate Status Journey Map&lt;/font&gt;&lt;/b&gt;" style="text;html=1;align=center;verticalAlign=middle;resizable=0;points=[];autosize=1;strokeColor=none;" parent="1" vertex="1">
          <mxGeometry x="80" y="260" width="370" height="20" as="geometry" />
        </mxCell>
      </root>
    </mxGraphModel>
  </diagram>
</mxfile>
